<svg width="100" height="88" viewBox="0 0 100 88" fill="none" xmlns="http://www.w3.org/2000/svg">
<path d="M17.376 10.5579C17.376 10.5579 32.626 21.9722 30.9124 39.8071C30.9124 39.8071 17.8899 33.3865 17.376 10.5579Z" fill="black"/>
<path d="M55.9168 20.3793C55.9168 20.3793 36.8561 26.5121 32.9849 44.4556C32.9849 44.4556 48.2154 42.461 55.9168 20.3793Z" fill="black"/>
<path d="M43.0956 61.1901V43.0663C47.3941 40.1539 52.7394 34.5118 54.6832 23.9385C54.6832 23.9385 48.2006 26.5988 43.0956 32.1436V20.3775C43.0569 14.1838 40.9301 8.13628 36.8757 3.45297C36.3875 2.8883 35.8605 2.32221 35.2921 1.758C34.6422 1.11225 35.1146 -0.000335693 36.0306 -0.000335693H43.0956H55.3014H58.218H62.5384H77.1213H97.3189L98.7082 12.417C98.8032 13.2668 97.6631 13.6466 97.241 12.9025C90.826 1.57817 77.1213 1.65457 77.1213 1.65457C69.0672 1.65457 62.5384 8.1838 62.5384 16.2379V37.4451V39.1005V41.751C54.9767 45.5594 47.8306 51.4927 43.774 60.7465C43.774 60.7465 51.9418 63.0155 62.5384 59.6172V63.9287C62.5384 71.9302 69.0019 78.4967 77.0034 78.5116C77.9464 78.5135 78.8521 78.4939 79.7211 78.4524C86.3803 78.1379 92.4641 74.57 96.3041 69.1208L98.8237 65.5454C99.2235 64.9775 100.115 65.3548 99.9866 66.0369L97.3189 80.1665H77.1213H62.5384H57.0295H43.0956H38.2725C36.9792 80.1665 36.3101 78.6397 37.187 77.6888C39.7448 74.9171 43.0956 69.6673 43.0956 61.1901Z" fill="black"/>
<path d="M6.38916 87.292C6.38916 87.292 19.2412 60.9622 42.6582 61.9527C42.6582 61.9527 36.0092 84.094 6.38916 87.292Z" fill="black"/>
<path d="M83.8607 32.9935C83.8607 32.9935 48.6041 36.4715 43.0747 60.8762C43.0747 60.8762 71.53 62.2203 83.8607 32.9935Z" fill="black"/>
<path d="M0 48.7852C0 48.7852 16.2355 37.0663 32.983 44.5818C32.983 44.5818 22.3505 55.6676 0 48.7852Z" fill="black"/>
<path d="M82.4319 79.3262C47.5447 82.6141 29.6445 36.8849 29.6445 36.8849C29.6445 36.8849 40.2383 66.5403 54.8939 75.1247C67.4501 82.4804 82.4319 79.3262 82.4319 79.3262Z" fill="black"/>
</svg>
