<svg width="178" height="48" viewBox="0 0 178 48" fill="none" xmlns="http://www.w3.org/2000/svg">
<path d="M135.845 45.7524H177.992V45.2912H135.845V45.7524Z" fill="white"/>
<path d="M0 45.7524H42.1468V45.2912H0V45.7524Z" fill="white"/>
<path d="M52.7559 47.9585H54.7614C56.3382 47.9585 57.4009 46.9559 57.4009 45.5214C57.4009 44.0875 56.3382 43.0856 54.7614 43.0856H52.7559V47.9585ZM53.2764 47.5123V43.5311H54.7339C56.0425 43.5311 56.8869 44.3521 56.8869 45.5214C56.8869 46.6913 56.0425 47.5123 54.7339 47.5123H53.2764ZM68.2794 47.5123V45.703H70.8271V45.2639H68.2794V43.5311H71.1373V43.0856H67.7582V47.9585H71.2429V47.5123H68.2794ZM83.0149 48C84.2751 48 84.852 47.3871 84.852 46.6706C84.852 44.8956 81.8184 45.703 81.8184 44.3657C81.8184 43.878 82.2189 43.4825 83.1205 43.4825C83.5564 43.4825 84.0495 43.6141 84.4717 43.8859L84.6474 43.4754C84.2534 43.2036 83.6757 43.0434 83.1205 43.0434C81.8676 43.0434 81.3044 43.6627 81.3044 44.38C81.3044 46.1836 84.3372 45.3612 84.3372 46.6985C84.3372 47.179 83.936 47.5609 83.0149 47.5609C82.3671 47.5609 81.7403 47.3106 81.389 46.9702L81.1851 47.3664C81.5509 47.7426 82.2753 48 83.0149 48ZM95.1738 47.9585H95.6943V43.0856H95.1738V47.9585ZM109.959 47.1647C109.579 47.4365 109.142 47.5409 108.671 47.5409C107.461 47.5409 106.566 46.677 106.566 45.5214C106.566 44.3593 107.461 43.5033 108.677 43.5033C109.255 43.5033 109.748 43.6699 110.163 44.0732L110.487 43.7464C110.051 43.2801 109.403 43.0434 108.657 43.0434C107.15 43.0434 106.053 44.0947 106.053 45.5214C106.053 46.9488 107.15 48 108.649 48C109.332 48 109.994 47.7912 110.459 47.38V45.5214H109.959V47.1647ZM124.722 43.0856V47.0396L121.548 43.0856H121.119V47.9585H121.639V44.0038L124.807 47.9585H125.235V43.0856H124.722Z" fill="white"/>
<path d="M167.142 -6.38962e-05C155.642 0.00422668 154.096 11.7102 154.096 11.7102C165.276 10.9186 167.142 -6.38962e-05 167.142 -6.38962e-05Z" fill="white"/>
<path d="M87.7937 19.9648C88.2253 22.6136 87.9087 24.0818 86.8438 24.3664C86.5842 24.4236 86.2957 24.38 85.9791 24.2384C84.8563 23.6677 83.8912 21.9013 83.085 18.9393C82.4228 16.4899 82.2927 14.6807 82.6961 13.5128C82.9549 12.8285 83.3439 12.4587 83.863 12.4015C84.1796 12.4015 84.5397 12.5589 84.9423 12.8721C85.8641 13.7267 86.6702 15.3779 87.3621 17.8287C87.5349 18.5688 87.6788 19.2811 87.7937 19.9648ZM81.2711 31.8438C83.1718 31.9861 85.3024 32.0998 87.6636 32.1856C88.6432 32.2714 89.3488 32.5418 89.7804 32.9973C90.3285 33.681 90.126 34.5069 89.176 35.4759C87.9665 36.701 86.3825 37.3131 84.424 37.3131C84.0495 37.3131 83.6613 37.2845 83.2586 37.2273C81.5878 36.9427 80.5937 36.1453 80.277 34.8352C79.9893 33.6674 80.3204 32.6705 81.2711 31.8438ZM90.9907 11.803C91.144 12.305 91.6826 12.5724 92.459 12.5303C92.9803 12.5009 93.4524 12.2592 93.8847 11.8888C94.7769 11.1193 95.022 10.1653 94.6185 9.02611C94.6185 8.99751 94.6048 8.9546 94.5759 8.89739C94.1154 7.78679 93.208 7.20324 91.8546 7.18894C90.6451 7.17607 89.4848 7.62088 88.4849 8.59918C88.0359 9.03827 87.6788 9.59536 87.3621 10.2225C87.1893 10.5644 86.9876 11.0778 86.757 11.7608C86.1808 11.6471 85.6198 11.5899 85.0725 11.5899C83.2289 11.5899 81.5733 12.1169 80.1043 13.171C78.2325 14.5383 77.2962 16.2904 77.2962 18.4265C77.2962 20.6198 78.2759 22.4148 80.2344 23.8107C79.3704 24.0667 78.6359 24.4658 78.0308 25.0071C76.8213 26.1185 76.3896 27.4143 76.7352 28.8953C77.023 30.1768 77.7575 30.9749 78.9381 31.2881C77.2962 31.773 76.4468 32.6555 76.3896 33.9377C76.3896 34.2223 76.4323 34.4934 76.5191 34.7494C77.0663 36.8862 79.6871 37.9546 84.3806 37.9546C86.4252 37.9546 88.2543 37.6414 89.8672 37.0142C92.8625 35.875 94.3597 34.0092 94.3597 31.4161C94.3597 30.2204 93.9281 29.2944 93.0642 28.6386C92.2002 27.9835 91.1129 27.5637 89.8021 27.3785C88.4921 27.1933 86.6992 27.101 84.424 27.101C83.7899 27.101 83.2 27.0581 82.6534 26.973C80.9537 26.7163 80.0038 26.2036 79.8021 25.4341C79.716 24.8934 80.0905 24.4937 80.9255 24.2384C82.1343 24.9213 83.5174 25.2639 85.0725 25.2639C86.9153 25.2639 88.5716 24.7504 90.04 23.7249C91.9118 22.3297 92.8473 20.5626 92.8473 18.4265C92.8473 17.4582 92.6174 16.5185 92.1568 15.6067C91.2061 13.7267 89.6228 12.4866 87.4048 11.8888C87.5486 11.2051 87.9231 10.6216 88.5283 10.1374C89.479 9.39655 90.3198 9.32647 90.8172 10.0945C90.922 10.2554 90.9618 10.4793 90.9907 10.7353C90.9618 11.3052 90.948 11.6642 90.9907 11.803Z" fill="white"/>
<path d="M178 28.2515C177.974 28.4724 177.856 28.5361 177.654 28.5647H167.2C166.984 28.559 166.902 28.4939 166.865 28.4152C166.827 28.3366 166.829 28.235 166.829 28.235C166.834 28.1785 166.856 28.1335 166.885 28.0963C167.03 27.9247 167.248 27.9118 167.248 27.9118C168.251 27.758 168.815 27.2095 168.928 26.2577C169.015 25.7449 169.001 25.0184 168.885 24.0787L168.194 17.4551C167.82 14.5782 166.84 13.1536 165.257 13.1822C165.078 13.1801 165.073 13.1908 164.963 13.2008C163.81 13.3431 163.068 14.2785 162.837 15.9598C162.722 16.7293 162.665 17.8256 162.665 19.2501V24.0787C162.665 26.1011 163.169 27.3118 164.177 27.7101C164.374 27.7838 164.587 27.841 164.806 27.8939C164.814 27.8932 164.817 27.886 164.825 27.886C164.927 27.886 165.013 27.9347 165.075 28.0055C165.168 28.062 165.238 28.1299 165.257 28.2229C165.199 28.4224 165.099 28.5361 164.955 28.5647H154.511C154.46 28.5504 154.422 28.5583 154.391 28.5368C154.268 28.4882 154.171 28.3723 154.171 28.2343C154.171 28.0927 154.258 27.9876 154.383 27.9397C154.426 27.9211 154.415 27.9311 154.475 27.9175C155.626 27.7752 156.257 27.1838 156.487 26.1297C156.602 25.6162 156.66 24.9325 156.66 24.0787V19.976C156.66 18.0394 156.387 16.8001 155.84 16.2587C155.493 15.9455 155.007 15.7002 154.488 15.5579C154.439 15.5322 154.428 15.5329 154.401 15.5121C154.305 15.4521 154.226 15.3491 154.226 15.2282C154.226 15.0451 154.373 14.9021 154.556 14.8935L154.601 14.8892C157.28 14.8328 159.684 13.9374 161.93 12.1996L162.131 12.0216C162.208 11.9415 162.323 11.9658 162.323 11.9658C162.513 11.9658 162.666 12.1174 162.666 12.3048L162.665 12.54V13.9081C163.731 12.6838 165.156 12.0709 166.941 12.0709C171.117 12.0995 173.536 14.094 174.199 18.053L174.89 24.0787C175.149 26.1011 175.797 27.3118 176.834 27.7101C177.058 27.7845 177.283 27.8431 177.506 27.8953L177.703 27.9468C177.703 27.9468 177.996 28.0126 178 28.2515Z" fill="white"/>
<path d="M121.531 15.5205C121.992 13.6126 122.798 12.6579 123.95 12.6579C124.151 12.6579 124.353 12.6865 124.555 12.743C125.621 12.9997 126.253 14.1532 126.456 16.2042V16.5897C126.513 18.6685 124.872 19.9079 121.531 20.3062C121.127 18.7687 121.127 17.1732 121.531 15.5205ZM131.337 23.7252C130.991 24.2945 130.53 24.7793 129.955 25.1777C128.543 26.1181 126.973 26.2325 125.246 25.5195C123.345 24.7221 122.15 23.1839 121.661 20.9048L127.967 20.1789C129.494 19.9794 130.473 19.2957 130.905 18.1279C131.279 16.9308 131.02 15.763 130.128 14.623C129.984 14.4528 129.811 14.2676 129.609 14.0681C128.198 12.7015 126.326 12.0171 123.993 12.0171C121.718 12.0171 119.846 12.5148 118.378 13.5124C116.044 15.1365 115.037 17.7281 115.354 21.2895C115.411 21.8873 115.526 22.4294 115.699 22.9136C116.044 24.1093 116.649 25.1777 117.513 26.1181C119.241 27.913 121.43 28.8098 124.079 28.8098C128.457 28.8098 131.137 27.1028 132.145 23.5979C132.179 23.4449 132.188 23.2361 131.985 23.1696C131.841 23.141 131.626 23.3262 131.337 23.7252Z" fill="white"/>
<path d="M141.359 15.5086C141.82 13.6006 142.626 12.6459 143.779 12.6459C143.98 12.6459 144.181 12.6745 144.383 12.731C145.449 12.9877 146.082 14.1412 146.284 16.1922V16.577C146.342 18.6566 144.7 19.8952 141.359 20.2942C140.955 18.756 140.955 17.1612 141.359 15.5086ZM151.945 23.6489C151.945 23.4615 151.791 23.2956 151.602 23.3092C151.428 23.3221 151.347 23.4208 151.347 23.4208L151.308 23.4737C151.287 23.5052 151.222 23.6217 151.198 23.6682C150.851 24.2382 150.358 24.7667 149.782 25.1657C148.371 26.1061 146.801 26.2198 145.074 25.5075C143.173 24.7102 141.978 23.1719 141.489 20.8928L147.795 20.1662C149.322 19.9667 150.301 19.283 150.733 18.1159C151.107 16.9188 150.848 15.751 149.956 14.6111C149.811 14.4402 149.638 14.2549 149.437 14.0561C148.026 12.6888 146.154 12.0051 143.821 12.0051C141.546 12.0051 139.674 12.5029 138.206 13.5005C135.873 15.1238 134.865 17.7162 135.182 21.2775C135.239 21.8754 135.354 22.4175 135.527 22.9009C135.873 24.0973 136.477 25.1657 137.341 26.1061C139.07 27.9011 141.258 28.7979 143.907 28.7979C148.285 28.7979 150.935 27.1917 151.942 23.6875L151.945 23.6489Z" fill="white"/>
<path d="M44.8107 15.5205C45.2712 13.6126 46.0773 12.6579 47.2298 12.6579C47.4307 12.6579 47.6332 12.6865 47.8342 12.743C48.8998 12.9997 49.5331 14.1532 49.7348 16.2042V16.5897C49.7927 18.6685 48.1508 19.9079 44.8107 20.3062C44.4073 18.7687 44.4073 17.1732 44.8107 15.5205ZM55.3827 23.6809C55.3762 23.505 55.2373 23.3548 55.0595 23.3612C54.9228 23.367 54.8462 23.4485 54.8462 23.4485C54.8368 23.4571 54.831 23.4649 54.8231 23.4749C54.7746 23.5257 54.7197 23.5972 54.646 23.7231C54.3004 24.2923 53.8102 24.7793 53.234 25.1777C51.8228 26.1181 50.2532 26.2325 48.5253 25.5195C46.6246 24.7221 45.4296 23.1839 44.9401 20.9048L51.2473 20.1789C52.7735 19.9794 53.7531 19.2957 54.1847 18.1279C54.5592 16.9308 54.2997 15.763 53.4068 14.623C53.2629 14.4528 53.0901 14.2676 52.8884 14.0681C51.4772 12.7015 49.6054 12.0171 47.2724 12.0171C44.9972 12.0171 43.1255 12.5148 41.6571 13.5124C39.3241 15.1365 38.3163 17.7281 38.633 21.2895C38.6908 21.8873 38.8057 22.4294 38.9785 22.9136C39.3241 24.1093 39.9292 25.1777 40.7932 26.1181C42.5211 27.913 44.7095 28.8098 47.3584 28.8098C51.7367 28.8098 54.3582 27.298 55.366 23.7932C55.366 23.7932 55.3834 23.7038 55.3827 23.6809Z" fill="white"/>
<path d="M70.4227 11.7993C69.9304 11.7993 69.407 11.878 68.8358 12.0188C67.9314 12.2706 67.0421 12.8198 66.1536 13.6357V12.3642C66.1536 12.302 66.1601 12.2234 66.1196 12.149C66.0004 11.9302 65.7885 11.9252 65.5825 12.0975C65.5124 12.149 65.503 12.1762 65.4234 12.2234C63.1858 13.9497 60.7574 14.8608 58.107 14.9709H58.0275C57.9798 14.9709 57.9487 14.9859 57.9169 15.0016C57.8055 15.0646 57.7419 15.1747 57.7419 15.2848C57.7419 15.4257 57.8221 15.5552 57.9812 15.6009C57.9812 15.6009 58.0116 15.6138 58.0275 15.6138C58.1229 15.6295 58.2183 15.661 58.3289 15.6925C59.5356 16.0693 60.1544 17.4824 60.1544 19.9625V24.0602C60.1544 24.9234 60.0908 25.5985 59.9795 26.1169C59.7098 27.1682 59.0273 27.7653 57.901 27.9062C57.726 27.9377 57.5655 28.0092 57.5518 28.2044C57.5518 28.3746 57.6421 28.5248 57.901 28.5498H68.3912C68.5654 28.5498 68.7332 28.4697 68.7404 28.2044C68.7086 28.0635 68.7238 27.9877 68.3912 27.9062C68.1374 27.8597 67.8996 27.781 67.661 27.7024C66.6611 27.294 66.1536 26.0855 66.1536 24.0602V19.0679C66.1536 17.9222 66.2013 16.9954 66.2809 16.2417C66.5187 14.3423 67.2641 13.1967 68.5344 12.8355C68.7881 12.8041 69.0419 12.8198 69.3115 12.867C69.994 13.0708 70.3591 13.5885 70.3909 14.4052C70.3591 14.7192 70.1372 15.0331 69.7403 15.3471C69.1532 15.7554 68.8676 16.1795 68.8676 16.6343C68.8995 17.4824 69.407 18.0631 70.3909 18.3771C70.55 18.44 70.7242 18.4715 70.8992 18.4715C72.1369 18.6123 73.0572 18.189 73.6609 17.1842C74.3904 15.9592 74.454 14.7821 73.8829 13.6357C73.1845 12.4114 72.0415 11.7993 70.4227 11.7993Z" fill="white"/>
<path d="M108.91 11.7993C108.434 11.7993 107.894 11.878 107.323 12.0188C106.434 12.2706 105.529 12.8198 104.641 13.6357L104.645 12.3221C104.645 12.3192 104.642 12.3185 104.642 12.3156C104.642 12.3128 104.645 12.3113 104.645 12.3085C104.645 12.1318 104.5 11.9888 104.321 11.9888C104.27 11.9888 104.232 12.0217 104.19 12.0431C104.171 12.0439 104.164 12.0417 104.141 12.0431C104.092 12.0753 103.999 12.159 103.91 12.2234C101.673 13.9497 99.2285 14.8608 96.5622 14.9709C96.5131 14.978 96.4993 14.9831 96.4531 15.0016C96.4444 15.0045 96.4191 15.0174 96.4191 15.0174C96.3244 15.0646 96.2449 15.1747 96.2449 15.3006C96.2449 15.4415 96.3258 15.5502 96.4639 15.5938C96.4639 15.5938 96.5398 15.6217 96.5557 15.6217C96.6613 15.646 96.7054 15.661 96.816 15.6925C98.0378 16.0693 98.6408 17.4824 98.6408 19.9625V24.0602C98.6408 24.9234 98.5779 25.5985 98.4665 26.1169C98.1969 27.1682 97.5144 27.7653 96.3873 27.9062C96.1834 27.9319 96.0525 28.0406 96.0381 28.2301C96.0699 28.4032 96.093 28.4955 96.3873 28.5498H106.894C107.077 28.5362 107.196 28.4697 107.233 28.2366C107.243 28.0657 107.085 27.9691 106.894 27.9062C106.624 27.8597 106.387 27.781 106.148 27.7024C105.148 27.294 104.641 26.0855 104.641 24.0602V19.0679C104.641 17.9222 104.688 16.9954 104.768 16.2417C105.006 14.3423 105.752 13.1967 107.021 12.8355C107.274 12.8041 107.529 12.8198 107.799 12.867C108.481 13.0708 108.846 13.5885 108.878 14.4052C108.846 14.7192 108.623 15.0331 108.227 15.3471C107.656 15.7554 107.355 16.1795 107.355 16.6343C107.387 17.4824 107.894 18.0631 108.878 18.3771C109.052 18.44 109.226 18.4715 109.386 18.4715C110.624 18.6123 111.56 18.189 112.163 17.1842C112.877 15.9592 112.957 14.7821 112.369 13.6357C111.687 12.4114 110.529 11.7993 108.91 11.7993Z" fill="white"/>
<path d="M6.23502 15.5205C6.69555 13.6126 7.50166 12.6579 8.65334 12.6579C8.85577 12.6579 9.05676 12.6865 9.25847 12.743C10.3248 12.9997 10.9582 14.1532 11.1599 16.2042V16.5897C11.217 18.6685 9.57585 19.9079 6.23502 20.3062C5.83088 18.7687 5.83088 17.1732 6.23502 15.5205ZM16.8243 23.6494C16.8243 23.4735 16.6797 23.3298 16.5012 23.3298C16.5012 23.3298 16.3746 23.3262 16.306 23.4027C16.2365 23.4799 16.1953 23.5479 16.1953 23.5479C15.8505 24.1171 15.2338 24.7793 14.6583 25.1777C13.2471 26.1181 11.6775 26.2325 9.95035 25.5195C8.04967 24.7221 6.85388 23.1839 6.36443 20.9048L12.6709 20.1789C14.1978 19.9794 15.1767 19.2957 15.609 18.1279C15.9828 16.9308 15.724 15.763 14.8311 14.623C14.6872 14.4528 14.5144 14.2676 14.3127 14.0681C12.9015 12.7015 11.0297 12.0171 8.69744 12.0171C6.42154 12.0171 4.54978 12.5148 3.08071 13.5124C0.74842 15.1365 -0.259395 17.7281 0.0579872 21.2895C0.115102 21.8873 0.230053 22.4294 0.403565 22.9136C0.748421 24.1093 1.35354 25.1777 2.21749 26.1181C3.94538 27.913 6.13453 28.8098 8.78348 28.8098C13.161 28.8098 15.8064 27.2279 16.8142 23.7231L16.8243 23.6494Z" fill="white"/>
<path d="M32.9016 12.6522C34.2434 12.66 34.4675 13.8143 33.5768 16.1141L30.8983 23.0366L27.8314 16.456C27.7454 16.2278 27.6883 16.0576 27.6594 15.9439C26.9386 14.0638 27.0781 12.9726 28.0859 12.6593C28.109 12.6515 28.1394 12.6393 28.1582 12.6307C28.2956 12.5814 28.4004 12.482 28.4004 12.3368C28.4004 12.2267 28.3418 12.1423 28.2558 12.0844C28.2558 12.0844 28.1539 12.0114 28.0114 12.0114L18.5015 12.0121C18.495 12.0129 18.4943 12.0114 18.4878 12.0121H18.4748C18.2969 12.0121 18.1523 12.1552 18.1523 12.3318C18.1523 12.4891 18.2745 12.6043 18.4256 12.6307C18.4394 12.6372 18.4625 12.6372 18.4777 12.6429C18.5941 12.6579 18.717 12.6965 18.8898 12.7816C19.3785 13.1235 20.1571 14.3342 21.2228 16.4131L26.0638 27.2916C26.4028 28.0554 27.167 28.5488 28.01 28.5488C28.892 28.5488 29.6815 28.011 29.9967 27.1965L34.1393 16.4989C34.3981 15.7866 34.6714 15.1744 34.9599 14.6617C35.7371 13.3516 36.8273 12.6844 38.2385 12.6558C38.253 12.6515 38.2573 12.6529 38.2689 12.6479C38.4214 12.6221 38.5364 12.4949 38.5364 12.3368C38.5364 12.1916 38.4345 12.0808 38.3007 12.0415C38.2797 12.0314 38.167 12.0143 38.1337 12.0121L32.9493 12.0114C32.9233 12.0164 32.8539 12.0214 32.8329 12.0293C32.6883 12.0615 32.5705 12.1838 32.5705 12.3368C32.5705 12.5099 32.7115 12.6465 32.885 12.6522H32.9016Z" fill="white"/>
</svg>
